# xmcd
#
# Track frame offsets: 
#        150
#        8121
#        27744
#        49033
#        71741
#        87527
#        104063
#        130675
#        149880
#        168376
#        190277
#        204421
#
# Disc length: 3081 seconds
#
# Revision: 1
# Processed by: cddbd v1.5.2PL0 Copyright (c) Steve Scherf et al.
# Submitted via: ExactAudioCopy v0.99pb4
#
DISCID=b80c070c
DTITLE=Omar and the Howlers - Big Delta
DYEAR=2001
DGENRE=Blues
TTITLE0=Linin' Track
TTITLE1=Monkey Land
TTITLE2=Muddy Springs Road
TTITLE3=Life Without You
TTITLE4=Bad Seed
TTITLE5=Wall of Pride
TTITLE6=Pushin' Fire
TTITLE7=Mississippi Queen
TTITLE8=Mystery Walk
TTITLE9=Low Down Dirty Blues
TTITLE10=Caveman Rock
TTITLE11=Conversation Mambo
EXTD=Omar (Kent Dykes) - guitar and vocals\n Roscoe Beck - bass\n Malcom
EXTD="Papa Mali" Welbourne - guitars, electric sitar, dobro\n B.E. "F
EXTD=rosty" Smith - drums [except tracks 2, 4, 8, 12]\n Terry Bozzio -
EXTD=drums [tracks 2, 4, 8, 12]\nRecorded and mixed by Max Crace at W
EXTD=orld Axis Recording, Austin TX.\nBlind Pig BPCD 5072 - UPC 0191485
EXTD=0727\n(p) 2001 Provogue Records.\n YEAR: 2001 ID3G: 0
EXTT0=Trad., arr. by Kent Dykes, Big Guitar Music, BMI
EXTT1=Kent Dykes, Big Guitar Music, BMI
EXTT2=Kent Dykes, Big Guitar Music, BMI - Michael Dan Ehmig, Dinger and O
EXTT2=llie Music, ASCAP
EXTT3=Kent Dykes, Big Guitar Music, BMI
EXTT4=Kent Dykes, Big Guitar Music, BMI - R.S. Field, Crossunder Music,
EXTT4=ASCAP
EXTT5=Kent Dykes, Big Guitar Music, BMI - Kevin Wommack and Keith Wommack
EXTT5=, Jumeaux Music, BMI
EXTT6=Kent Dykes, Big Guitar Music, BMI - Bill Carter and Ruth Ellsworth,
EXTT6=Blame Music, BMI
EXTT7=Lawrence Laing, Felix Pappalardi, David Rea, and Leslie Weinstein,
EXTT7=BMG Songs Inc, ASCAP
EXTT8=Kent Dykes, Big Guitar Music, BMI
EXTT9=Kent Dykes, Big Guitar Music, BMI
EXTT10=Kent Dykes, Big Guitar Music, BMI
EXTT11=Kent Dykes, Big Guitar Music, BMI - Charles Roscoe Beck, Bluesbo
EXTT11=y Music, ASCAP
PLAYORDER=
